<?xml version="1.0" standalone="no"?>
<!DOCTYPE svg PUBLIC "-//W3C//DTD SVG 20010904//EN"
 "http://www.w3.org/TR/2001/REC-SVG-20010904/DTD/svg10.dtd">
<svg version="1.0" xmlns="http://www.w3.org/2000/svg"
 width="433.000000pt" height="433.000000pt" viewBox="0 0 433.000000 433.000000"
 preserveAspectRatio="xMidYMid meet">
<metadata>
Created by potrace 1.11, written by Peter Selinger 2001-2013
</metadata>
<g transform="translate(0.000000,433.000000) scale(0.100000,-0.100000)"
fill="#000000" stroke="none">
<path d="M2850 3581 c0 -5 -8 -8 -17 -8 -28 1 -73 -14 -73 -24 0 -5 -3 -8 -7
-7 -13 3 -53 -13 -53 -21 0 -12 -65 -8 -81 5 -19 15 -68 24 -75 13 -2 -4 -11
-6 -18 -3 -7 3 -21 -2 -30 -11 -9 -9 -16 -14 -16 -10 0 14 -178 -165 -180
-180 0 -3 -3 -5 -6 -4 -3 0 -11 -7 -18 -17 -7 -9 -17 -14 -23 -11 -9 6 -100
16 -193 22 -25 2 -47 4 -50 5 -3 1 -15 1 -27 0 -12 0 -35 6 -52 14 -16 9 -40
18 -53 20 -13 3 -24 5 -25 6 -4 2 -52 3 -55 0 -2 -1 -14 -3 -28 -5 -54 -9 -62
-12 -68 -22 -4 -5 -15 -9 -24 -7 -10 1 -18 -4 -18 -12 0 -9 -4 -12 -10 -9 -5
3 -10 2 -10 -4 0 -5 -27 -15 -60 -22 -33 -6 -60 -15 -60 -19 0 -5 -11 -3 -25
3 -23 11 -26 15 -25 32 2 18 -99 88 -126 88 -13 0 -24 2 -24 6 0 4 -19 5 -41
3 -41 -4 -79 -27 -79 -47 0 -5 -7 -23 -15 -38 -8 -15 -12 -34 -8 -42 3 -8 1
-15 -4 -15 -10 0 -9 -102 1 -119 4 -6 1 -11 -8 -11 -9 0 -16 -4 -16 -8 0 -5
-12 -15 -27 -22 -40 -20 -115 -71 -162 -110 -13 -11 -28 -20 -33 -20 -5 0 -6
-4 -3 -10 3 -5 3 -10 -2 -10 -26 0 -188 -181 -240 -267 -14 -24 -29 -43 -34
-43 -5 0 -8 -3 -7 -7 1 -5 -9 -29 -22 -55 l-23 -47 -39 20 c-71 36 -140 6
-169 -72 -9 -24 -27 -50 -40 -58 -31 -17 -60 -56 -62 -81 -1 -11 -4 -20 -7
-20 -3 0 -5 -12 -4 -27 1 -16 3 -34 3 -41 1 -8 19 -32 41 -55 23 -22 38 -47
36 -54 -3 -7 -1 -13 4 -13 5 0 12 -11 16 -25 4 -16 18 -29 40 -37 30 -11 33
-15 28 -42 -10 -54 -11 -180 -1 -200 7 -14 6 -17 -5 -10 -10 6 -11 5 -2 -7 6
-8 11 -26 10 -41 -1 -16 1 -28 4 -28 3 0 7 -10 7 -22 1 -19 12 -64 27 -113 38
-124 133 -263 239 -352 45 -37 158 -108 216 -134 85 -40 95 -48 80 -65 -7 -9
-8 -14 -1 -14 5 0 10 -16 10 -35 0 -20 6 -43 14 -52 11 -14 11 -16 -2 -8 -13
8 -13 7 0 -11 41 -54 69 -70 120 -71 27 -1 50 3 50 8 0 6 4 8 9 4 18 -11 77
25 136 82 7 7 15 9 19 6 3 -4 6 -1 6 6 0 8 5 9 18 2 10 -5 38 -12 63 -15 24
-2 44 -5 44 -6 0 -3 48 -9 105 -14 30 -3 55 -5 55 -6 0 -6 68 -11 232 -14 162
-4 197 -7 223 -22 16 -10 30 -23 30 -28 0 -5 3 -6 7 -3 3 4 14 0 23 -8 21 -19
78 -25 110 -11 25 11 64 45 66 59 1 4 2 11 3 16 0 4 13 7 29 7 15 -1 43 4 62
12 19 8 46 16 60 18 14 3 33 7 43 10 10 3 32 7 50 10 18 2 42 6 55 9 96 22
131 28 136 24 2 -2 13 4 23 14 19 17 21 16 58 -27 21 -25 50 -49 64 -54 31
-12 91 -12 91 0 0 4 6 8 13 8 11 0 48 31 72 62 15 18 45 84 45 97 0 6 6 11 13
11 8 0 7 4 -3 10 -8 5 -10 10 -4 10 7 0 14 8 16 18 3 10 27 33 54 50 138 89
249 207 319 337 47 86 44 84 57 62 15 -27 62 -44 106 -38 5 0 19 10 31 20 17
15 29 17 56 11 45 -10 75 4 104 47 19 29 41 39 74 34 4 0 7 4 7 11 0 6 3 9 6
5 14 -13 37 26 39 67 1 23 9 57 18 76 26 51 22 91 -13 123 -16 16 -30 36 -31
45 -3 67 -8 85 -27 105 -12 13 -29 24 -37 24 -20 0 -95 34 -95 44 0 9 -38 23
-60 22 -22 0 -70 -21 -70 -30 0 -5 -14 -17 -30 -28 -16 -11 -30 -26 -30 -32 0
-15 -16 -17 -25 -3 -3 5 -8 26 -10 46 -3 20 -8 41 -12 48 -4 6 -8 17 -9 25 -2
7 -12 36 -23 65 -11 28 -22 58 -23 66 -2 8 -6 17 -9 20 -4 3 -19 30 -34 60
-33 66 -105 182 -119 191 -5 4 -6 14 -3 23 4 9 1 16 -5 16 -9 0 -9 3 0 12 7 7
8 17 2 29 -13 23 2 62 32 83 12 9 19 16 14 16 -5 0 -3 6 3 13 12 15 21 97 11
97 -7 0 -32 46 -36 67 -1 7 2 15 7 19 5 3 9 16 9 30 0 16 4 23 11 18 8 -4 8
-1 2 12 -5 11 -9 26 -8 34 1 8 -5 27 -12 43 -7 15 -11 27 -9 27 11 0 -57 59
-74 65 -11 4 -20 11 -20 16 0 5 -7 9 -15 9 -11 0 -14 9 -11 39 2 22 1 43 -3
46 -3 4 -6 10 -6 14 0 12 -43 61 -54 61 -6 0 -11 5 -11 10 0 6 -9 10 -20 10
-11 0 -20 4 -20 8 0 10 -5 11 -75 17 -27 2 -52 5 -55 6 -3 1 -30 3 -60 3 -52
1 -55 2 -57 28 -1 15 -6 36 -12 46 -6 11 -7 23 -3 27 4 3 3 6 -3 5 -5 -1 -12
-2 -15 0 -20 7 -50 8 -50 1z"/>
</g>
</svg>
